<svg width="17" height="21" viewBox="0 0 17 21" fill="none" xmlns="http://www.w3.org/2000/svg">
<path d="M14.9704 20.402C14.542 20.5733 14.0771 20.635 13.6185 20.5813L9.2496 20.0771C7.59974 19.8867 6.19618 18.8335 5.58684 17.3281L4.39096 14.3738C3.78163 12.8684 4.06003 11.1423 5.11756 9.86919L8.07458 6.21914L2.45179 5.49075C0.931501 5.31527 -0.157708 3.94814 0.0187262 2.43701C0.195268 0.925985 1.57069 -0.15666 3.09098 0.0186054L7.45989 0.522812C9.10997 0.713285 10.5134 1.76668 11.1226 3.27186L12.3185 6.22616C12.9279 7.73144 12.6495 9.4574 11.5919 10.7306L8.41974 14.3396L14.2577 15.1092C15.7779 15.2847 16.8672 16.6518 16.6908 18.1629C16.5694 19.2013 15.8819 20.0374 14.9704 20.402Z" fill="#A183E2"/>
<path d="M8.07462 6.21918L7.76327 6.60364L5.11761 9.86923C4.20868 10.9635 3.87582 12.3923 4.18707 13.728C5.4571 13.9288 7.13927 14.2126 8.4199 14.3399L8.82647 13.8772L11.5921 10.7308C12.5441 9.58452 12.8642 8.07137 12.4741 6.68265C11.1617 6.56014 9.38467 6.36179 8.07462 6.21918Z" fill="#9762E2"/>
</svg>
