<svg width="25" height="26" viewBox="0 0 25 26" fill="none" xmlns="http://www.w3.org/2000/svg">
<path d="M23.9607 12.431L20.5398 11.4141C18.9992 10.9623 17.5959 10.1068 16.4641 8.92952C15.3323 7.75219 14.5099 6.29243 14.0756 4.68991L13.098 1.13134C13.0488 1.00684 12.9652 0.900348 12.8577 0.825405C12.7502 0.750463 12.6237 0.710449 12.4943 0.710449C12.3649 0.710449 12.2385 0.750463 12.131 0.825405C12.0235 0.900348 11.9399 1.00684 11.8907 1.13134L10.9131 4.68991C10.4788 6.29243 9.65636 7.75219 8.52456 8.92952C7.39276 10.1068 5.98944 10.9623 4.44889 11.4141L1.02792 12.431C0.896564 12.4698 0.780956 12.5521 0.698636 12.6654C0.616316 12.7788 0.571777 12.9169 0.571777 13.059C0.571777 13.201 0.616316 13.3391 0.698636 13.4525C0.780956 13.5658 0.896564 13.6481 1.02792 13.6869L4.44889 14.7038C5.98944 15.1556 7.39276 16.0111 8.52456 17.1884C9.65636 18.3657 10.4788 19.8255 10.9131 21.428L11.8907 24.9866C11.928 25.1232 12.0071 25.2435 12.116 25.3291C12.225 25.4147 12.3578 25.4611 12.4943 25.4611C12.6309 25.4611 12.7637 25.4147 12.8726 25.3291C12.9816 25.2435 13.0607 25.1232 13.098 24.9866L14.0756 21.428C14.5099 19.8255 15.3323 18.3657 16.4641 17.1884C17.5959 16.0111 18.9992 15.1556 20.5398 14.7038L23.9607 13.6869C24.0921 13.6481 24.2077 13.5658 24.29 13.4525C24.3723 13.3391 24.4169 13.201 24.4169 13.059C24.4169 12.9169 24.3723 12.7788 24.29 12.6654C24.2077 12.5521 24.0921 12.4698 23.9607 12.431Z" fill="#FAD386"/>
</svg>
