<svg width="6" height="7" viewBox="0 0 6 7" fill="none" xmlns="http://www.w3.org/2000/svg">
<path d="M3.20417 0.198285L3.8746 2.07207C3.90327 2.15226 3.96009 2.21586 4.03188 2.24797L5.70678 2.99806C5.94345 3.10409 5.94345 3.47877 5.70678 3.5848L4.03188 4.33489C3.9602 4.367 3.90338 4.4306 3.8746 4.51079L3.20417 6.38457C3.10948 6.64928 2.77448 6.64928 2.67979 6.38457L2.00936 4.51079C1.98068 4.4306 1.92387 4.367 1.85208 4.33489L0.17718 3.5848C-0.0593855 3.47877 -0.0593855 3.10409 0.17718 2.99806L1.85208 2.24797C1.92376 2.21586 1.98058 2.15226 2.00936 2.07207L2.67979 0.198285C2.77448 -0.0664206 3.10937 -0.0664206 3.20417 0.198285Z" fill="#FFC7B6"/>
</svg>
