<svg width="8" height="9" viewBox="0 0 8 9" fill="none" xmlns="http://www.w3.org/2000/svg">
<path d="M4.32008 0.26736L5.22386 2.7935C5.26259 2.90166 5.3392 2.98737 5.43582 3.03066L7.69373 4.04184C8.01268 4.18467 8.01268 4.68994 7.69373 4.83276L5.43582 5.84394C5.3392 5.88723 5.26249 5.97294 5.22386 6.0811L4.32008 8.60713C4.19243 8.96405 3.74081 8.96405 3.61316 8.60713L2.70927 6.081C2.67054 5.97284 2.59393 5.88712 2.49731 5.84384L0.239294 4.83276C-0.0797646 4.68994 -0.0797646 4.18477 0.239294 4.04184L2.49721 3.03066C2.59393 2.98737 2.67054 2.90166 2.70916 2.7935L3.61305 0.26736C3.74081 -0.0894454 4.19232 -0.0894454 4.32008 0.26736Z" fill="#CAB4EF"/>
</svg>
